<?xml version="1.0" encoding="utf-8"?>
<svg xmlns="http://www.w3.org/2000/svg" viewBox="0 0 256 256" width="512" height="512" xmlns:bx="https://boxy-svg.com"><defs><style>
      .ink { fill: none; stroke: #0A0A0A; stroke-width: 16; stroke-linecap: round; stroke-linejoin: round; }
    </style><style>@import url(https://fonts.googleapis.com/css2?family=Inter%3Aital%2Cwght%400%2C100..900%3B1%2C100..900&amp;display=swap);</style></defs><g id="object-8" style="" transform="matrix(1.79158, 0, 0, 1.79158, -150.751923, -137.911194)"><rect x="104.378" y="80.688" width="95.582" height="120.268" style="stroke: rgb(0, 0, 0); fill: rgba(216, 216, 216, 0); stroke-width: 5px;" rx="14.121" ry="14.121" id="object-0"/><rect x="120.169" y="122.742" width="64" height="0.38" style="fill: rgb(216, 216, 216); stroke: rgb(0, 0, 0); stroke-width: 5px;" id="object-1"/><rect x="120.169" y="157.444" width="64" height="0.38" style="fill: rgb(216, 216, 216); stroke: rgb(0, 0, 0); stroke-width: 5px;" id="object-2"/><polygon points="188 152 216 168 216 200 188 216 160 200 160 168" fill="#00DC82" stroke="#00B86B" stroke-linejoin="round" style="stroke-width: 4px;" id="object-3"/><rect x="95.18" y="108.916" width="8" height="8" style="stroke: rgb(0, 0, 0); stroke-width: 2px;" id="object-4"/><rect x="95.18" y="136.504" width="8" height="8" style="stroke: rgb(0, 0, 0); stroke-width: 2px;" id="object-5"/><rect x="95.18" y="164.092" width="8" height="8" style="stroke: rgb(0, 0, 0); stroke-width: 2px;" id="object-6"/><path d="M 166.51 184.12 L 166.51 182.83 Q 167.72 182.83 168.19 182.34 Q 168.67 181.84 168.67 180.73 L 168.67 178.84 Q 168.67 177.65 168.97 176.89 Q 169.27 176.12 169.85 175.69 Q 170.42 175.26 171.26 175.09 Q 172.1 174.92 173.16 174.92 L 173.16 176.89 Q 171.91 176.88 171.47 177.41 Q 171.02 177.93 171.02 179.04 L 171.02 181.4 Q 171.02 181.94 170.85 182.43 Q 170.68 182.92 170.21 183.3 Q 169.73 183.68 168.84 183.9 Q 167.95 184.12 166.51 184.12 Z M 173.16 193.08 Q 172.1 193.08 171.26 192.91 Q 170.42 192.74 169.85 192.32 Q 169.27 191.89 168.97 191.13 Q 168.67 190.36 168.67 189.17 L 168.67 187.29 Q 168.67 186.17 168.19 185.67 Q 167.72 185.17 166.51 185.17 L 166.51 183.89 Q 167.95 183.89 168.84 184.11 Q 169.73 184.33 170.21 184.72 Q 170.68 185.1 170.85 185.59 Q 171.02 186.08 171.02 186.63 L 171.02 188.96 Q 171.02 190.08 171.47 190.6 Q 171.91 191.13 173.16 191.13 Z M 166.51 185.18 L 166.51 182.82 L 168.82 182.82 L 168.82 185.18 Z M 175.47 191.28 L 175.47 176.73 L 178.42 176.73 L 183.44 184.74 Q 183.76 185.24 184.11 185.87 Q 184.46 186.5 184.84 187.28 Q 185.22 188.06 185.59 189 L 185.3 189 Q 185.23 188.18 185.18 187.32 Q 185.12 186.45 185.1 185.68 Q 185.08 184.9 185.08 184.36 L 185.08 176.73 L 187.72 176.73 L 187.72 191.28 L 184.76 191.28 L 180.22 184.06 Q 179.79 183.37 179.41 182.69 Q 179.03 182.02 178.59 181.17 Q 178.15 180.32 177.53 179.12 L 177.9 179.12 Q 177.96 180.18 178.01 181.14 Q 178.05 182.09 178.09 182.84 Q 178.12 183.59 178.12 184.05 L 178.12 191.28 Z M 190.39 191.28 L 190.39 176.73 L 195.96 176.73 Q 197.53 176.73 198.57 177.23 Q 199.62 177.72 200.13 178.57 Q 200.65 179.42 200.65 180.51 Q 200.65 181.4 200.31 182.03 Q 199.97 182.65 199.4 183.05 Q 198.83 183.44 198.11 183.6 L 198.11 183.75 Q 198.88 183.79 199.6 184.22 Q 200.31 184.65 200.76 185.43 Q 201.22 186.21 201.22 187.31 Q 201.22 188.45 200.67 189.34 Q 200.13 190.24 199.03 190.76 Q 197.93 191.28 196.26 191.28 Z M 193 189.1 L 195.85 189.1 Q 197.29 189.1 197.93 188.54 Q 198.57 187.99 198.57 187.12 Q 198.57 186.46 198.25 185.94 Q 197.93 185.42 197.34 185.12 Q 196.75 184.81 195.94 184.81 L 193 184.81 Z M 193 182.93 L 195.62 182.93 Q 196.32 182.93 196.86 182.67 Q 197.41 182.42 197.73 181.95 Q 198.04 181.48 198.04 180.84 Q 198.04 179.99 197.45 179.44 Q 196.85 178.9 195.68 178.9 L 193 178.9 Z M 209.71 184.12 Q 208.28 184.12 207.39 183.9 Q 206.5 183.68 206.02 183.3 Q 205.54 182.92 205.37 182.43 Q 205.2 181.94 205.2 181.4 L 205.2 179.04 Q 205.2 177.93 204.76 177.41 Q 204.32 176.89 203.06 176.89 L 203.06 174.92 Q 204.13 174.92 204.96 175.09 Q 205.79 175.26 206.37 175.69 Q 206.95 176.12 207.25 176.89 Q 207.54 177.65 207.54 178.84 L 207.54 180.73 Q 207.54 181.84 208.02 182.34 Q 208.5 182.83 209.71 182.83 Z M 203.06 193.08 L 203.06 191.13 Q 204.32 191.13 204.76 190.6 Q 205.2 190.08 205.2 188.96 L 205.2 186.63 Q 205.2 186.08 205.37 185.59 Q 205.54 185.1 206.02 184.72 Q 206.5 184.33 207.39 184.11 Q 208.28 183.89 209.71 183.89 L 209.71 185.17 Q 208.49 185.18 208.02 185.68 Q 207.54 186.18 207.54 187.29 L 207.54 189.17 Q 207.54 190.36 207.25 191.13 Q 206.95 191.89 206.37 192.32 Q 205.79 192.74 204.96 192.91 Q 204.13 193.08 203.06 193.08 Z M 209.71 185.17 L 207.39 185.18 L 207.39 182.82 L 209.71 182.83 Z" style="fill: rgb(255, 255, 255); paint-order: fill; text-wrap-mode: nowrap;"/></g></svg>
