<?xml version="1.0" encoding="utf-8"?>
<svg xmlns="http://www.w3.org/2000/svg" viewBox="0 0 500 500">
  <g transform="matrix(1, 0, 0, 1, -8.448013, 0)">
    <g transform="matrix(0.954888, 0.179991, -0.186537, 0.930594, -283.975983, -84.486855)" style="transform-origin: 542.424px 332.842px;">
      <rect x="360" y="110" width="300" height="400" rx="44" ry="44" stroke-linejoin="round" style="stroke-width: 28.3902px; fill: rgb(255, 255, 255); stroke: rgb(148, 163, 184);"/>
    </g>
    <rect x="40.373" y="66.145" width="291.511" height="379.642" rx="48" ry="48" stroke-linejoin="round" style="fill: rgb(255, 255, 255); stroke-width: 20px; stroke: rgb(148, 163, 184); transform-origin: 258.448px 248.356px;"/>
    <rect x="83.083" y="179.156" width="206.091" height="26.334" rx="14" ry="14" style="stroke-width: 1; stroke: rgb(148, 163, 184); fill: rgb(148, 163, 184); transform-origin: 258.448px 248.356px;"/>
    <rect x="83.083" y="239.348" width="162.704" height="26.334" rx="14" ry="14" style="stroke-width: 1; paint-order: fill; fill: rgb(148, 163, 184); stroke: rgb(148, 163, 184); transform-origin: 258.448px 248.356px;"/>
    <polygon points="369.836 239.334 476.523 300.465 476.523 427.433 369.836 488.564 263.151 427.433 263.151 300.465" stroke-width="14" stroke-linejoin="round" style="stroke-width: 14; paint-order: fill; stroke: rgb(0, 184, 107); fill: rgb(0, 220, 130); transform-origin: 258.448px 248.356px;"/>
    <g stroke="#0F172A" stroke-opacity="0.7" stroke-linecap="round" stroke-width="22" transform="matrix(0.969866, 0, 0, 0.940495, -145.062256, -134.764481)" style="transform-origin: 403.51px 383.12px;">
      <line x1="470" y1="470" x2="570" y2="470" style="stroke: rgb(0, 184, 107); stroke-opacity: 1;"/>
      <line x1="470" y1="512" x2="570" y2="512" style="stroke: rgb(0, 184, 107); stroke-opacity: 1;"/>
      <line x1="495" y1="554" x2="545" y2="554" style="stroke: rgb(0, 184, 107); stroke-opacity: 1;"/>
    </g>
  </g>
</svg>